<?xml version="1.0" standalone="no"?>
<!DOCTYPE svg PUBLIC "-//W3C//DTD SVG 20010904//EN"
 "http://www.w3.org/TR/2001/REC-SVG-20010904/DTD/svg10.dtd">
<svg version="1.0" xmlns="http://www.w3.org/2000/svg"
 width="512.000000pt" height="512.000000pt" viewBox="0 0 512.000000 512.000000"
 preserveAspectRatio="xMidYMid meet">

<g transform="translate(0.000000,512.000000) scale(0.100000,-0.100000)"
fill="#203fde" stroke="none">
<path d="M1144 4806 l-34 -34 0 -2211 0 -2211 29 -32 c25 -28 36 -33 76 -33
40 0 51 5 76 33 28 32 29 34 29 147 l0 115 165 0 165 0 0 -110 c0 -125 9 -152
57 -175 47 -23 95 -13 127 26 25 29 26 37 26 145 l0 114 160 0 160 0 0 -92 c0
-121 12 -164 53 -188 39 -24 68 -25 107 -5 48 25 60 61 60 180 l0 105 159 0
159 0 4 -121 3 -121 34 -30 c30 -26 39 -30 78 -25 81 9 103 52 103 205 l0 92
159 0 159 0 4 -121 c3 -118 4 -121 31 -145 42 -36 109 -34 148 5 29 29 29 31
29 145 l0 116 165 0 165 0 0 -114 c0 -128 11 -155 74 -176 41 -13 94 5 120 41
15 22 16 206 16 2232 l0 2209 -34 34 c-39 39 -80 45 -126 17 -42 -24 -50 -53
-50 -168 l0 -105 -165 0 -165 0 0 105 c0 116 -10 149 -51 171 -48 24 -87 18
-125 -20 l-34 -34 0 -111 0 -111 -160 0 -160 0 -1 93 c0 118 -13 156 -60 182
-51 27 -104 13 -136 -34 -20 -30 -23 -46 -23 -137 l0 -104 -160 0 -160 0 0
104 c0 91 -3 107 -23 137 -32 47 -85 61 -136 34 -47 -26 -60 -64 -60 -182 l-1
-93 -160 0 -160 0 0 111 0 111 -34 34 c-38 38 -77 44 -125 20 -41 -22 -51 -55
-51 -171 l0 -105 -165 0 -165 0 0 105 c0 116 -10 149 -51 171 -48 24 -87 18
-125 -20z m1460 -647 c14 -7 48 -42 75 -78 61 -83 207 -224 286 -277 33 -22
114 -69 180 -103 66 -34 147 -82 181 -106 137 -98 223 -226 272 -403 l27 -97
3 -1038 3 -1038 -30 -29 -29 -30 -1012 0 -1012 0 -29 30 -30 29 3 1038 3 1038
27 97 c66 242 194 381 478 523 52 26 122 66 155 88 79 54 225 196 287 278 64
86 102 105 162 78z"/>
<path d="M2510 3834 c-94 -116 -235 -221 -414 -311 -241 -120 -318 -202 -370
-393 -19 -73 -20 -106 -23 -1017 l-4 -943 861 0 861 0 -3 943 c-3 930 -4 943
-25 1019 -55 196 -123 266 -380 397 -172 88 -331 209 -413 315 -19 25 -37 45
-40 45 -3 0 -25 -25 -50 -55z"/>
</g>
</svg>
